<svg xmlns="http://www.w3.org/2000/svg" viewBox="0 0 640 360" role="img" aria-label="Enzyme action thumbnail">
  <rect width="640" height="360" rx="32" fill="#f5f3ff"/>
  <text x="52" y="58" font-family="Arial, sans-serif" font-size="30" font-weight="800" fill="#4c1d95">Enzymes</text>
  <text x="52" y="88" font-family="Arial, sans-serif" font-size="17" font-weight="700" fill="#475569">Active site, ES complex, Vmax</text>
  <path d="M156 196c0-70 72-108 143-82 70 25 91 102 45 158-47 58-151 45-184-17-17-31 12-42 45-33 29 8 56-4 58-30 2-31-43-39-72-23-20 10-34 17-35 27z" fill="#8b5cf6" stroke="#4c1d95" stroke-width="8"/>
  <path d="M262 169c34-8 66 0 82 28-14 28-45 39-78 28 17-18 17-37-4-56z" fill="#ede9fe" stroke="#4c1d95" stroke-width="5"/>
  <text x="292" y="154" text-anchor="middle" font-family="Arial, sans-serif" font-size="15" font-weight="900" fill="#4c1d95">Active site</text>
  <polygon points="276,189 300,202 300,228 276,241 252,228 252,202" fill="#22c55e" stroke="#14532d" stroke-width="5"/>
  <circle cx="396" cy="136" r="20" fill="#ef4444" stroke="#991b1b" stroke-width="5"/>
  <text x="396" y="174" text-anchor="middle" font-family="Arial, sans-serif" font-size="14" font-weight="900" fill="#991b1b">Inhibitor</text>
  <circle cx="380" cy="255" r="14" fill="#38bdf8" stroke="#075985" stroke-width="4"/>
  <circle cx="418" cy="264" r="14" fill="#38bdf8" stroke="#075985" stroke-width="4"/>
  <text x="400" y="303" text-anchor="middle" font-family="Arial, sans-serif" font-size="16" font-weight="900" fill="#075985">Products</text>
  <g transform="translate(438 90)">
    <rect x="0" y="0" width="152" height="128" rx="16" fill="#fff1f2" stroke="#fecdd3" stroke-width="3"/>
    <line x1="26" y1="103" x2="134" y2="103" stroke="#475569" stroke-width="3"/>
    <line x1="26" y1="103" x2="26" y2="22" stroke="#475569" stroke-width="3"/>
    <path d="M26 100c18-52 44-70 104-72" fill="none" stroke="#e11d48" stroke-width="6" stroke-linecap="round"/>
    <line x1="26" y1="31" x2="134" y2="31" stroke="#be123c" stroke-width="3" stroke-dasharray="7 6"/>
    <text x="108" y="25" font-family="Arial, sans-serif" font-size="12" font-weight="900" fill="#be123c">Vmax</text>
    <text x="78" y="122" text-anchor="middle" font-family="Arial, sans-serif" font-size="12" font-weight="800" fill="#475569">[S]</text>
  </g>
</svg>
