<svg width="1200" height="720" viewBox="0 0 1200 720" fill="none" xmlns="http://www.w3.org/2000/svg">
  <rect width="1200" height="720" rx="36" fill="#F8FAFC"/>
  <rect x="34" y="34" width="1132" height="652" rx="28" fill="#FFFDF7" stroke="#DCE7D9" stroke-width="4"/>

  <text x="80" y="110" fill="#1E293B" font-family="Arial, Helvetica, sans-serif" font-size="46" font-weight="700">Bryophytes and Pteridophytes</text>
  <text x="82" y="154" fill="#64748B" font-family="Arial, Helvetica, sans-serif" font-size="24">Plant Kingdom • Gametophyte dominance vs Sporophyte dominance</text>

  <rect x="78" y="196" width="490" height="416" rx="28" fill="#F0FDF4" stroke="#BBF7D0" stroke-width="3"/>
  <rect x="632" y="196" width="490" height="416" rx="28" fill="#F0F9FF" stroke="#BAE6FD" stroke-width="3"/>

  <text x="122" y="248" fill="#166534" font-family="Arial, Helvetica, sans-serif" font-size="34" font-weight="700">Bryophyte</text>
  <text x="122" y="286" fill="#4B5563" font-family="Arial, Helvetica, sans-serif" font-size="22">Small moss-like plant body</text>

  <text x="676" y="248" fill="#0369A1" font-family="Arial, Helvetica, sans-serif" font-size="34" font-weight="700">Pteridophyte</text>
  <text x="676" y="286" fill="#4B5563" font-family="Arial, Helvetica, sans-serif" font-size="22">Taller fern with vascular tissue</text>

  <rect x="110" y="500" width="420" height="72" rx="20" fill="#8B5A3C"/>
  <rect x="662" y="500" width="420" height="72" rx="20" fill="#8B5A3C"/>

  <line x1="240" y1="500" x2="240" y2="368" stroke="#38BDF8" stroke-width="16" stroke-linecap="round"/>
  <circle cx="240" cy="368" r="14" fill="#7DD3FC"/>
  <ellipse cx="318" cy="438" rx="110" ry="54" fill="#22C55E"/>
  <ellipse cx="270" cy="458" rx="54" ry="28" fill="#16A34A"/>
  <ellipse cx="378" cy="454" rx="52" ry="28" fill="#16A34A"/>
  <ellipse cx="322" cy="400" rx="64" ry="28" fill="#4ADE80"/>
  <line x1="320" y1="386" x2="320" y2="304" stroke="#7C3AED" stroke-width="7" stroke-linecap="round"/>
  <ellipse cx="320" cy="286" rx="24" ry="16" fill="#F59E0B"/>
  <text x="372" y="308" fill="#6D28D9" font-family="Arial, Helvetica, sans-serif" font-size="24" font-weight="700">(2n)</text>
  <text x="300" y="448" fill="#064E3B" font-family="Arial, Helvetica, sans-serif" font-size="28" font-weight="700">(n)</text>

  <rect x="408" y="314" width="98" height="108" rx="18" fill="#FFFFFF" stroke="#A7F3D0" stroke-width="3"/>
  <text x="457" y="346" text-anchor="middle" fill="#1E293B" font-family="Arial, Helvetica, sans-serif" font-size="18" font-weight="700">No</text>
  <text x="457" y="374" text-anchor="middle" fill="#475569" font-family="Arial, Helvetica, sans-serif" font-size="17">xylem</text>
  <text x="457" y="400" text-anchor="middle" fill="#475569" font-family="Arial, Helvetica, sans-serif" font-size="17">phloem</text>

  <line x1="796" y1="500" x2="796" y2="248" stroke="#0F766E" stroke-width="18" stroke-linecap="round"/>
  <line x1="728" y1="500" x2="728" y2="268" stroke="#38BDF8" stroke-width="14" stroke-linecap="round"/>
  <circle cx="728" cy="268" r="14" fill="#7DD3FC"/>
  <path d="M796 282C742 328 718 378 704 426" stroke="#16A34A" stroke-width="14" stroke-linecap="round"/>
  <path d="M796 316C850 350 878 398 892 444" stroke="#16A34A" stroke-width="14" stroke-linecap="round"/>
  <path d="M796 360C754 394 738 434 728 470" stroke="#22C55E" stroke-width="12" stroke-linecap="round"/>
  <path d="M796 386C838 414 864 448 878 484" stroke="#22C55E" stroke-width="12" stroke-linecap="round"/>
  <text x="826" y="280" fill="#0F766E" font-family="Arial, Helvetica, sans-serif" font-size="28" font-weight="700">(2n)</text>
  <path d="M952 440C930 410 890 426 900 458C910 488 940 484 952 466C964 484 994 488 1004 458C1014 426 974 410 952 440Z" fill="#86EFAC" stroke="#16A34A" stroke-width="4"/>
  <text x="952" y="406" text-anchor="middle" fill="#166534" font-family="Arial, Helvetica, sans-serif" font-size="24" font-weight="700">(n)</text>

  <rect x="994" y="314" width="98" height="118" rx="18" fill="#FFFFFF" stroke="#BAE6FD" stroke-width="3"/>
  <text x="1043" y="344" text-anchor="middle" fill="#1E293B" font-family="Arial, Helvetica, sans-serif" font-size="18" font-weight="700">Vascular</text>
  <rect x="1022" y="368" width="14" height="44" rx="7" fill="#38BDF8"/>
  <rect x="1050" y="368" width="14" height="44" rx="7" fill="#F59E0B"/>
  <text x="1029" y="426" text-anchor="middle" fill="#1E293B" font-family="Arial, Helvetica, sans-serif" font-size="16">X</text>
  <text x="1057" y="426" text-anchor="middle" fill="#1E293B" font-family="Arial, Helvetica, sans-serif" font-size="16">P</text>

  <rect x="88" y="628" width="1024" height="34" rx="17" fill="#E2E8F0"/>
  <rect x="88" y="628" width="428" height="34" rx="17" fill="#22C55E"/>
  <text x="104" y="651" fill="#0F172A" font-family="Arial, Helvetica, sans-serif" font-size="18" font-weight="700">Bryophytes: short, non-vascular, gametophyte dominant</text>
  <text x="698" y="651" fill="#0F172A" font-family="Arial, Helvetica, sans-serif" font-size="18" font-weight="700">Pteridophytes: tall, vascular, sporophyte dominant</text>
</svg>
